<?xml version="1.0" encoding="UTF-8"?>
<!DOCTYPE svg PUBLIC "-//W3C//DTD SVG 1.1//EN" "http://www.w3.org/Graphics/SVG/1.1/DTD/svg11.dtd">
<!-- Creator: CorelDRAW -->
<svg xmlns="http://www.w3.org/2000/svg" xml:space="preserve" width="708px" height="708px" version="1.1" style="shape-rendering:geometricPrecision; text-rendering:geometricPrecision; image-rendering:optimizeQuality; fill-rule:evenodd; clip-rule:evenodd"
viewBox="0 0 90.12 90.16"
 xmlns:xlink="http://www.w3.org/1999/xlink"
 xmlns:xodm="http://www.corel.com/coreldraw/odm/2003">
 <defs>
  <style type="text/css">
   <![CDATA[
    .fil0 {fill:white}
   ]]>
  </style>
 </defs>
 <g id="Camada_x0020_1">
  <metadata id="CorelCorpID_0Corel-Layer"/>
  <path class="fil0" d="M1.18 55.48l-0.05 -0.23c6.13,-10.27 22.43,-27.62 37.47,-31.87 9.35,-2.64 21.44,-0.96 32.62,-0.96l0 0 0 -22.42 -26.16 0c-24.91,0 -45.06,20.38 -45.06,45.06 0,3.62 0.45,6.79 1.13,10.19l0.06 0.23 -0.01 0z"/>
  <path class="fil0" d="M75.18 86.72c8.83,-4.75 14.94,-14.04 14.94,-24.68 0,-15.39 -12.68,-30.46 -28.08,-30.46l-16.98 0 0 22.19 16.98 0c1.36,0 2.95,0.68 3.85,1.58 6.37,5.95 9.28,23.09 9.29,31.37l0 0z"/>
  <path class="fil0" d="M4.53 64.76c11.24,23.12 30.29,25.57 52.59,25.39 3.6,-0.03 11.04,-0.71 11.04,-0.71 0.05,-0.29 0.1,-0.58 0.14,-0.87 1.19,-7.46 0.89,-15.49 -1.73,-22.9 -0.04,-0.01 -0.04,-0.03 -0.08,-0.04 -0.82,1.22 -2.09,2.08 -3.77,2.26 -0.6,0.07 -1.24,0.04 -1.84,0.04l-15.82 0c-12.68,0 -22.87,-10.19 -22.87,-22.87 0,-4.18 1.18,-8.15 3.22,-11.57l-0.02 -0.02c-7.87,7.48 -16.59,18.94 -20.86,31.29z"/>
 </g>
</svg>
